# xmcd
#
# Track frame offsets: 
#        150
#        12580
#        28570
#        40994
#        54260
#        66684
#        79985
#        94365
#        109383
#        122615
#
# Disc length: 1758 seconds
#
# Revision: 0
# Processed by: cddbd v1.5.1PL0 Copyright (c) Steve Scherf et al.
# Submitted via: ExactAudioCopy v0.95a5
#
DISCID=8c06dc0a
DTITLE=Southern Strangers - Best Of The Southern Strangers
DYEAR=2002
DGENRE=Bluegrass
TTITLE0=I Wonder Where You Are Tonight
TTITLE1=Mary Ann
TTITLE2=Elvira
TTITLE3=Acres
TTITLE4=My Best Friend
TTITLE5=I Want To Stroll Over Heaven
TTITLE6=I'm A Winner Either Way
TTITLE7=He Said If I Be Lifted Up
TTITLE8=Never Grow Old
TTITLE9=Springtime In Heaven
EXTD=
EXTT0=
EXTT1=
EXTT2=
EXTT3=
EXTT4=
EXTT5=
EXTT6=
EXTT7=
EXTT8=
EXTT9=
PLAYORDER=
